<?xml version="1.0" encoding="utf-8"?>
<!-- Generator: Adobe Illustrator 25.0.0, SVG Export Plug-In . SVG Version: 6.00 Build 0)  -->
<svg version="1.1" id="Layer_1" xmlns="http://www.w3.org/2000/svg" xmlns:xlink="http://www.w3.org/1999/xlink" x="0px" y="0px"
	 viewBox="0 0 267.2 56.3" style="enable-background:new 0 0 267.2 56.3;" xml:space="preserve">
<style type="text/css">
	.st0{clip-path:url(#SVGID_2_);}
	.st1{fill:none;stroke:#FFFFFF;stroke-width:0.75;stroke-miterlimit:10;}
	.st2{clip-path:url(#SVGID_4_);fill:none;stroke:#FFFFFF;stroke-width:2;stroke-miterlimit:10;}
	.st3{fill:#FFFFFF;stroke:#878787;stroke-width:0.25;stroke-miterlimit:10;}
	.st4{fill:none;stroke:#878787;stroke-width:0.25;stroke-miterlimit:10;}
	.st5{fill:#FFFFFF;}
	.st6{fill:url(#SVGID_5_);}
</style>
<g>
	<g>
		<g>
			<defs>
				<rect id="SVGID_1_" y="2.1" width="90.8" height="46.4"/>
			</defs>
			<clipPath id="SVGID_2_">
				<use xlink:href="#SVGID_1_"  style="overflow:visible;"/>
			</clipPath>
			<g class="st0">
				<g>
					<line class="st1" x1="4.6" y1="31.1" x2="38.9" y2="45.5"/>
					<path class="st1" d="M10,25.4c-1.4-0.4-2,0.4-2,1.7c0,0.8,1.2,1.4,2,1.3c1.3-0.2,1.6-1.8,1.7-2c0.1-1.3-1-1.7-1-3.1
						c0-0.1,0.1-1.7,1.3-2.3c0.8-0.4,1.9-0.2,2.5,0.6c0.6,0.8,0.5,2.2-0.3,2.6c-0.6,0.3-1.6,0-2-0.8c-0.2-0.5-0.1-0.9-0.1-1.1"/>
					<path class="st1" d="M3.9,39.8c-1.3-0.6-1.2-1.7-0.4-2.6c0.5-0.6,1.8-0.3,2.4,0.4c0.8,1,0,2.4-0.1,2.6
						c-0.8,1.1-1.9,0.5-2.8,1.6c-0.1,0.1-1.1,1.3-0.6,2.5c0.3,0.8,1.3,1.4,2.2,1.2c1-0.2,1.8-1.3,1.5-2.2c-0.3-0.7-1.2-1-2-0.7
						c-0.5,0.2-0.7,0.6-0.8,0.7"/>
					<path class="st1" d="M6.4,35.3c0.1,0,0.8,0.3,1.4,0c0.6-0.3,0.8-1,0.7-1.5c-0.1-1-1.3-1.9-2.4-1.7c-1.2,0.2-1.8,1.5-1.8,2.6
						c0,0.9,0.5,1.9,1.3,2.3c1.7,1,4.7-0.4,5.7-2.5c0.3-0.7,0.4-1.5,0.4-1.7c0-0.4,0.1-1.5-0.5-2.6c-0.5-1-2-2.6-3.5-2.1
						c-1,0.3-2,1.5-1.7,2.6c0.3,1.3,2.2,2,3,1.5C9.4,32,9.5,31.4,9.5,31c0-0.8-0.6-1.2-0.7-1.3"/>
					<path class="st1" d="M11.1,36.5c-0.3,0.8-0.1,1.6,0.4,2c0.6,0.5,1.5,0.2,2-0.2c0.8-0.6,0.9-2.1,0.1-3.5"/>
					<path class="st1" d="M13.1,32c0.3-0.7,1-1,1.6-0.8c0.7,0.2,1.1,1.1,1.1,1.7c0.1,1-0.8,2-2.2,2.1"/>
					<path class="st1" d="M16.8,37.8c-0.2-0.5-0.1-1,0.2-1.2c0.4-0.2,1,0.2,1.2,0.6c0.3,0.7-0.5,2-1.5,2.2c-1.2,0.2-2.1-1-2-2.1
						c0.1-0.9,0.9-1.5,1-1.5"/>
					<path class="st1" d="M18.1,35.3c-0.5,0.1-0.9,0.5-0.9,0.8c0,0.4,0.7,0.7,1.1,0.6c0.8-0.2,1.4-1.5,0.9-2.4
						c-0.5-1-1.9-1.1-2.8-0.4c-0.7,0.5-0.7,1.5-0.7,1.6"/>
					<path class="st1" d="M19.6,39.9c-0.1,0-0.3-0.1-0.5-0.3c-0.3-0.3-0.4-0.8-0.2-1.1c0.2-0.6,0.8-0.4,1.2-1
						c0.4-0.7-0.2-1.3,0.2-1.7c0.2-0.2,0.8-0.3,1.1-0.2c0.1,0.1,0.2,0.2,0.2,0.3"/>
					<path class="st1" d="M21.6,39.7c-0.2-0.2-0.5-0.5-0.4-0.7c0.1-0.3,0.8-0.1,0.9-0.4c0.2-0.4-0.5-0.9-0.3-1.2
						c0.1-0.1,0.3-0.2,1.1,0"/>
				</g>
				<g>
					<circle class="st1" cx="20.9" cy="23.5" r="0.9"/>
					<line class="st1" x1="14.2" y1="17.1" x2="20.1" y2="23"/>
					<path class="st1" d="M21.5,26.6l2.1-2.1l-0.8-4.1c-0.6,0.1-1.4,0.3-2.3,0.3c-1.4,0-2.5-0.3-3.2-0.6c0.3,0.9,0.5,1.9,0.7,3.1
						c0.1,1,0.1,1.8,0.1,2.6C19.3,26,20.4,26.3,21.5,26.6z"/>
					<polygon class="st1" points="20.9,28 22.4,29.5 26.9,24.9 25.2,23.3 					"/>
					<path class="st1" d="M22.4,29.5c1.9,2.4,4.5,5.3,7.9,8.2c3.4,2.9,6.8,5,9.5,6.5c0.6-0.6,1.2-1.2,1.8-1.8
						C40.1,39.8,38.3,37,36,34c-3.1-3.9-6.3-6.9-9-9.1"/>
					<path class="st1" d="M25.1,30.6c0,0,0.4,0.4,0.9,0.3c0.5-0.1,0.7-0.4,0.8-0.7c0.2-0.7-0.4-1.5-1.1-1.7
						c-0.8-0.2-1.5,0.5-1.8,1.2c-0.2,0.6-0.2,1.3,0.2,1.8c0.8,1.1,3.1,0.9,4.3-0.2c0.4-0.4,0.6-0.9,0.7-1c0.1-0.2,0.4-0.9,0.3-1.8
						c-0.1-0.8-0.6-2.2-1.7-2.2c-0.7-0.1-1.6,0.4-1.8,1.2c-0.1,0.9,0.9,1.9,1.5,1.7c0.3-0.1,0.5-0.4,0.7-0.6c0.2-0.5-0.1-0.9-0.1-1"
						/>
					<path class="st1" d="M27.4,32.8c-0.5,0.5-0.6,1.2-0.3,1.8c0.3,0.6,1.1,0.7,1.6,0.5c0.8-0.2,1.4-1.4,1.2-2.7"/>
					<path class="st1" d="M30.6,29.8c0.5-0.5,1.2-0.5,1.6-0.1c0.5,0.5,0.5,1.3,0.3,1.8c-0.3,0.9-1.4,1.4-2.6,1"/>
					<path class="st1" d="M32.2,36.8c-0.1-0.6,0.2-1.1,0.5-1.2c0.5-0.1,0.9,0.5,1,1c0.1,0.8-1,1.9-2.1,1.7c-1.2-0.2-1.8-1.7-1.5-2.8
						c0.3-0.9,1.2-1.2,1.4-1.2"/>
					<path class="st1" d="M34.2,34.7c-0.6,0-1,0.2-1.1,0.6c-0.1,0.5,0.5,1,1,1c0.8,0.1,1.8-1.2,1.5-2.3c-0.2-1.3-1.6-1.8-2.6-1.4
						c-0.8,0.4-1.1,1.4-1.1,1.5"/>
					<path class="st1" d="M34,40.7c-0.1-0.1-0.3-0.2-0.5-0.5c-0.2-0.5-0.2-1.1,0.1-1.4c0.5-0.6,1.1-0.2,1.7-0.7
						c0.7-0.6,0.2-1.6,0.9-1.9c0.4-0.2,1-0.2,1.3,0.2c0.1,0.2,0.2,0.3,0.2,0.4"/>
					<line class="st1" x1="40.7" y1="43.2" x2="28.6" y2="31"/>
				</g>
				<g>
					<line class="st1" x1="87.1" y1="31.1" x2="52.8" y2="45.5"/>
					<path class="st1" d="M81.7,25.4c1.3-0.4,2,0.4,2,1.7c0,0.8-1.2,1.4-2,1.3c-1.3-0.2-1.7-1.8-1.7-2c-0.2-1.3,1-1.7,1-3.1
						c0-0.1-0.1-1.7-1.3-2.3c-0.8-0.4-1.9-0.2-2.5,0.6c-0.6,0.8-0.5,2.2,0.3,2.6c0.6,0.3,1.6,0,2-0.8c0.2-0.5,0.1-0.9,0.1-1.1"/>
					<path class="st1" d="M87.8,39.8c1.3-0.6,1.2-1.7,0.4-2.6c-0.5-0.6-1.8-0.3-2.4,0.4c-0.8,1,0,2.4,0.1,2.6
						c0.8,1.1,1.9,0.5,2.8,1.6c0.1,0.1,1.1,1.3,0.6,2.5c-0.3,0.8-1.3,1.4-2.2,1.2c-1-0.2-1.8-1.3-1.5-2.2c0.3-0.7,1.2-1,2-0.7
						c0.5,0.2,0.7,0.6,0.8,0.7"/>
					<path class="st1" d="M85.4,35.3c-0.1,0-0.8,0.3-1.4,0c-0.6-0.3-0.8-1-0.7-1.5c0.1-1,1.3-1.9,2.4-1.7c1.2,0.2,1.8,1.5,1.8,2.6
						c0,0.9-0.5,1.9-1.3,2.3c-1.7,1-4.7-0.4-5.7-2.5c-0.3-0.7-0.4-1.5-0.4-1.7c0-0.4-0.1-1.5,0.5-2.6c0.6-1,2-2.6,3.5-2.1
						c1,0.3,2,1.5,1.7,2.6c-0.3,1.3-2.2,2-3,1.5c-0.4-0.2-0.5-0.8-0.5-1.2c0-0.8,0.6-1.2,0.7-1.3"/>
					<path class="st1" d="M80.6,36.5c0.3,0.8,0.1,1.6-0.4,2c-0.7,0.5-1.6,0.2-2-0.2c-0.8-0.6-0.9-2.1-0.1-3.5"/>
					<path class="st1" d="M78.6,32c-0.3-0.7-1-1-1.6-0.8c-0.7,0.2-1.1,1.1-1.1,1.7c-0.1,1,0.8,2,2.2,2.1"/>
					<path class="st1" d="M74.9,37.8c0.2-0.5,0.1-1-0.2-1.2c-0.4-0.2-1,0.2-1.2,0.6c-0.3,0.7,0.5,2,1.6,2.2c1.2,0.2,2.1-1,2-2.1
						c-0.1-0.9-0.8-1.5-1-1.5"/>
					<path class="st1" d="M73.6,35.3c0.5,0.1,0.9,0.5,0.9,0.8c0,0.4-0.7,0.7-1.1,0.6c-0.8-0.2-1.4-1.5-0.9-2.4
						c0.5-1,1.9-1.1,2.8-0.4c0.7,0.5,0.7,1.5,0.7,1.6"/>
					<path class="st1" d="M72.2,39.9c0.1,0,0.3-0.1,0.5-0.3c0.3-0.3,0.4-0.8,0.2-1.1c-0.2-0.6-0.8-0.4-1.2-1
						c-0.4-0.7,0.2-1.3-0.2-1.7c-0.2-0.2-0.8-0.3-1.1-0.2c-0.1,0.1-0.2,0.2-0.2,0.3"/>
					<path class="st1" d="M70.1,39.7c0.2-0.2,0.5-0.5,0.4-0.7c-0.1-0.3-0.8-0.1-0.9-0.4c-0.2-0.4,0.5-0.9,0.3-1.2
						c-0.1-0.1-0.3-0.2-1.1,0"/>
				</g>
				<g>
					<circle class="st1" cx="70.8" cy="23.5" r="0.9"/>
					<line class="st1" x1="77.5" y1="17.1" x2="71.6" y2="23"/>
					<path class="st1" d="M70.2,26.6l-2.1-2.1l0.8-4.1c0.6,0.1,1.4,0.3,2.3,0.3c1.4,0,2.5-0.3,3.2-0.6c-0.3,0.9-0.5,1.9-0.7,3.1
						c-0.1,1-0.1,1.8-0.1,2.6C72.4,26,71.3,26.3,70.2,26.6z"/>
					<polygon class="st1" points="70.8,28 69.4,29.5 64.8,24.9 66.5,23.3 					"/>
					<path class="st1" d="M69.4,29.5c-1.9,2.4-4.5,5.3-7.9,8.2c-3.4,2.9-6.8,5-9.5,6.5c-0.6-0.6-1.2-1.2-1.8-1.8
						c1.4-2.5,3.3-5.3,5.6-8.3c3.1-3.9,6.3-6.9,9-9.1"/>
					<path class="st1" d="M66.7,30.6c0,0-0.4,0.4-0.9,0.3c-0.4-0.1-0.7-0.4-0.8-0.7c-0.2-0.7,0.3-1.5,1.1-1.7
						c0.8-0.2,1.5,0.5,1.8,1.2c0.2,0.6,0.2,1.3-0.2,1.8c-0.8,1.1-3.1,0.9-4.3-0.2c-0.4-0.4-0.6-0.9-0.7-1c-0.1-0.2-0.4-0.9-0.3-1.8
						c0.1-0.8,0.6-2.2,1.7-2.2c0.7-0.1,1.6,0.4,1.8,1.2c0.1,0.9-0.9,1.9-1.5,1.7c-0.3-0.1-0.6-0.4-0.7-0.6c-0.2-0.5,0.1-0.9,0.1-1"
						/>
					<path class="st1" d="M64.3,32.8c0.5,0.5,0.6,1.2,0.3,1.8c-0.3,0.6-1.1,0.7-1.6,0.5c-0.8-0.2-1.4-1.4-1.2-2.7"/>
					<path class="st1" d="M61.2,29.8c-0.5-0.5-1.2-0.5-1.6-0.1C59,30.1,59,31,59.2,31.5c0.3,0.9,1.4,1.4,2.6,1"/>
					<path class="st1" d="M59.6,36.8c0.1-0.6-0.2-1.1-0.5-1.2c-0.5-0.1-0.9,0.5-1,1c-0.1,0.8,1,1.9,2.1,1.7c1.2-0.2,1.8-1.7,1.5-2.8
						c-0.3-0.9-1.2-1.2-1.4-1.2"/>
					<path class="st1" d="M57.6,34.7c0.6,0,1,0.2,1.1,0.6c0.1,0.5-0.5,1-1,1c-0.8,0.1-1.8-1.2-1.5-2.3c0.2-1.3,1.6-1.8,2.6-1.4
						c0.8,0.4,1.1,1.4,1.1,1.5"/>
					<path class="st1" d="M57.7,40.7c0.1-0.1,0.3-0.2,0.5-0.5c0.2-0.5,0.2-1.1-0.1-1.4c-0.5-0.6-1.1-0.2-1.7-0.7
						c-0.7-0.6-0.2-1.6-0.9-1.9c-0.4-0.2-1-0.2-1.3,0.2c-0.1,0.2-0.2,0.3-0.2,0.4"/>
					<line class="st1" x1="51" y1="43.2" x2="63.1" y2="31"/>
				</g>
				<g>
					<line class="st1" x1="28.7" y1="7" x2="42.8" y2="41.4"/>
					<path class="st1" d="M36.5,6.7c-0.7-1.2-1.8-1.1-2.6-0.2c-0.6,0.6-0.2,1.8,0.5,2.4c1,0.8,2.4-0.1,2.6-0.2
						c1-0.8,0.4-1.9,1.5-2.9c0.1-0.1,1.2-1.2,2.5-0.7c0.8,0.3,1.5,1.2,1.3,2.1c-0.2,1-1.2,1.9-2.1,1.6c-0.7-0.2-1.1-1.2-0.9-2
						C39.5,6.4,39.8,6.1,40,6"/>
					<path class="st1" d="M21.9,12.7c-0.5-1.3,0.3-2,1.6-2.1c0.8,0,1.5,1.1,1.4,2c-0.1,1.3-1.7,1.8-1.9,1.8
						c-1.3,0.2-1.7-0.9-3.1-0.8c-0.1,0-1.7,0.1-2.2,1.4c-0.3,0.8-0.1,1.9,0.7,2.4c0.9,0.5,2.2,0.3,2.6-0.5c0.3-0.7-0.1-1.6-0.9-1.9
						c-0.5-0.2-0.9-0.1-1.1,0"/>
					<path class="st1" d="M26.9,11.2c0,0.1,0.3,0.8,1,1c0.6,0.2,1.2-0.2,1.5-0.5c0.7-0.8,0.4-2.2-0.5-2.9c-1-0.7-2.4-0.2-3.1,0.6
						c-0.6,0.6-1,1.7-0.7,2.5c0.5,1.9,3.6,3,5.8,2.2c0.7-0.3,1.3-0.8,1.5-1c0.3-0.3,1.1-1,1.5-2.2c0.3-1.1,0.4-3.2-1-4
						c-0.9-0.5-2.4-0.3-3,0.7c-0.7,1.2,0.1,3,1.1,3.2c0.4,0.1,0.9-0.2,1.2-0.5c0.5-0.6,0.4-1.3,0.4-1.4"/>
					<path class="st1" d="M29.5,15.4c-0.8,0.3-1.2,1-1.1,1.8c0.1,0.8,1,1.2,1.5,1.3c1,0.1,2.1-0.9,2.5-2.4"/>
					<path class="st1" d="M34.1,13.6c0.7-0.3,1.4,0,1.7,0.5c0.3,0.7,0,1.6-0.4,2c-0.7,0.8-2,0.8-3.1-0.1"/>
					<path class="st1" d="M32.6,20.3c0.2-0.5,0.7-0.8,1-0.7c0.5,0.1,0.6,0.8,0.4,1.3c-0.3,0.7-1.8,1.1-2.6,0.5
						c-0.9-0.7-0.8-2.1,0.1-2.9c0.7-0.6,1.6-0.5,1.8-0.4"/>
					<path class="st1" d="M35.3,19.5c-0.5-0.3-1-0.3-1.2,0c-0.3,0.3,0,1,0.4,1.2c0.7,0.4,2-0.1,2.4-1.1c0.3-1.1-0.6-2.1-1.7-2.3
						c-0.9-0.1-1.6,0.5-1.7,0.6"/>
					<path class="st1" d="M33,23.8c-0.1-0.1-0.2-0.3-0.1-0.5c0-0.4,0.3-0.8,0.6-1c0.5-0.3,0.9,0.3,1.5,0.1c0.7-0.2,0.8-1,1.4-1
						c0.3,0,0.8,0.3,0.9,0.7c0,0.2,0,0.3,0,0.4"/>
					<path class="st1" d="M34.7,25.1c0-0.3,0-0.7,0.2-0.8c0.3-0.1,0.6,0.5,1,0.3c0.4-0.1,0.3-1,0.6-1.1c0.1,0,0.3,0.1,0.8,0.8"/>
				</g>
				<g>
					<line class="st1" x1="62.7" y1="7" x2="48.5" y2="41.4"/>
					<path class="st1" d="M54.9,6.7c0.7-1.2,1.8-1.1,2.6-0.2c0.6,0.6,0.2,1.8-0.5,2.4c-1,0.8-2.4-0.1-2.6-0.2
						c-1-0.8-0.4-1.9-1.5-2.9c-0.1-0.1-1.2-1.2-2.5-0.7c-0.8,0.3-1.5,1.2-1.3,2.1c0.2,1,1.2,1.9,2.1,1.6c0.7-0.2,1.1-1.2,0.9-2
						c-0.2-0.5-0.5-0.7-0.7-0.8"/>
					<path class="st1" d="M69.4,12.7c0.5-1.3-0.3-2-1.6-2.1c-0.8,0-1.5,1.1-1.4,2c0.1,1.3,1.7,1.8,1.9,1.8c1.3,0.2,1.7-0.9,3.2-0.8
						c0.1,0,1.7,0.1,2.2,1.4c0.3,0.8,0.1,1.9-0.7,2.4c-0.9,0.5-2.2,0.3-2.6-0.5c-0.3-0.7,0.1-1.6,0.9-1.9c0.5-0.2,0.9-0.1,1.1,0"/>
					<path class="st1" d="M64.5,11.2c0,0.1-0.3,0.8-1,1c-0.6,0.2-1.2-0.2-1.5-0.5c-0.7-0.8-0.4-2.2,0.5-2.9c1-0.7,2.4-0.2,3.1,0.6
						c0.6,0.6,1,1.7,0.7,2.5c-0.5,1.9-3.6,3-5.8,2.2c-0.7-0.3-1.3-0.8-1.5-1c-0.3-0.3-1.1-1-1.5-2.2c-0.3-1.1-0.4-3.2,1-4
						c0.9-0.5,2.4-0.3,3,0.7c0.7,1.2-0.1,3-1.1,3.2c-0.4,0.1-0.9-0.2-1.2-0.5c-0.5-0.6-0.4-1.3-0.4-1.4"/>
					<path class="st1" d="M61.9,15.4c0.8,0.3,1.2,1,1.1,1.8c-0.1,0.8-0.9,1.2-1.5,1.3c-1,0.1-2.1-0.9-2.5-2.4"/>
					<path class="st1" d="M57.3,13.6c-0.7-0.3-1.4,0-1.7,0.5c-0.3,0.7,0,1.6,0.4,2c0.7,0.8,2,0.8,3.1-0.1"/>
					<path class="st1" d="M58.8,20.3c-0.2-0.5-0.7-0.8-1-0.7c-0.5,0.1-0.6,0.8-0.4,1.3c0.3,0.7,1.8,1.1,2.6,0.5
						c0.9-0.7,0.8-2.1-0.1-2.9c-0.7-0.6-1.6-0.5-1.8-0.4"/>
					<path class="st1" d="M56.1,19.5c0.5-0.3,1-0.3,1.2,0c0.3,0.3,0,1-0.4,1.2c-0.7,0.4-2-0.1-2.4-1.1c-0.3-1.1,0.6-2.1,1.7-2.3
						c0.9-0.1,1.6,0.5,1.7,0.6"/>
					<path class="st1" d="M58.3,23.8c0.1-0.1,0.2-0.3,0.1-0.5c0-0.4-0.3-0.8-0.6-1c-0.5-0.3-0.9,0.3-1.5,0.1c-0.7-0.2-0.8-1-1.4-1
						c-0.3,0-0.8,0.3-0.9,0.7c0,0.2,0,0.3,0,0.4"/>
					<path class="st1" d="M56.7,25.1c0-0.3,0-0.7-0.2-0.8c-0.3-0.1-0.6,0.5-1,0.3c-0.4-0.1-0.3-1-0.6-1.1c-0.1,0-0.3,0.1-0.8,0.8"/>
				</g>
				<g>
					<circle class="st1" cx="45.7" cy="13.2" r="0.9"/>
					<line class="st1" x1="45.6" y1="4" x2="45.5" y2="12.3"/>
					<path class="st1" d="M43.9,15.9l3,0l2.4-3.4c-0.5-0.3-1.2-0.8-1.8-1.5c-1-1-1.5-2-1.8-2.7c-0.4,0.8-1,1.7-1.8,2.6
						c-0.6,0.8-1.2,1.4-1.8,1.9C42.8,13.8,43.3,14.9,43.9,15.9z"/>
					<polygon class="st1" points="42.5,16.4 42.5,18.4 48.9,18.5 48.8,16.2 					"/>
					<path class="st1" d="M42.5,18.4c-0.4,3.1-0.7,6.9-0.3,11.4c0.3,4.5,1.2,8.3,2,11.3c0.8,0,1.7,0,2.5,0c0.8-2.8,1.5-6.1,2-9.8
						c0.6-4.9,0.5-9.3,0.2-12.9"/>
					<path class="st1" d="M43.6,21.2c0,0.1,0,0.6,0.4,0.9c0.4,0.3,0.8,0.2,1.1,0.1c0.6-0.3,0.8-1.3,0.5-2c-0.4-0.7-1.5-0.7-2.1-0.5
						c-0.6,0.2-1,0.8-1.1,1.4c-0.2,1.3,1.5,2.9,3.1,2.9c0.5,0,1-0.2,1.2-0.2c0.3-0.1,1-0.3,1.5-1c0.5-0.6,1.1-2,0.4-2.8
						c-0.5-0.5-1.5-0.9-2.1-0.4c-0.8,0.6-0.7,1.9-0.2,2.3c0.3,0.2,0.6,0.1,0.9,0c0.5-0.2,0.6-0.7,0.6-0.8"/>
					<path class="st1" d="M43.6,24.4c-0.7,0-1.3,0.4-1.5,1c-0.2,0.7,0.3,1.3,0.7,1.5c0.8,0.4,2,0.1,2.8-1"/>
					<path class="st1" d="M48,24.5c0.7,0,1.2,0.5,1.2,1.1c0,0.7-0.6,1.3-1.1,1.5c-0.8,0.4-1.9,0-2.5-1.2"/>
					<path class="st1" d="M44,30.6c0.4-0.5,0.9-0.6,1.2-0.5c0.4,0.2,0.3,1,0,1.4c-0.5,0.7-2,0.6-2.7-0.3c-0.7-1-0.1-2.5,1-3
						c0.8-0.4,1.7,0,1.8,0.1"/>
					<path class="st1" d="M47,30.5c-0.4-0.4-0.9-0.5-1.2-0.3c-0.4,0.3-0.3,1,0,1.4c0.5,0.6,2.1,0.5,2.8-0.5c0.8-1,0.2-2.4-0.8-2.8
						c-0.8-0.3-1.8,0.2-1.9,0.2"/>
					<path class="st1" d="M42.6,34.6c0-0.2-0.1-0.4,0-0.7c0.2-0.5,0.7-0.8,1.1-0.9c0.8-0.1,0.9,0.7,1.8,0.7c0.9,0,1.3-0.9,2-0.7
						c0.4,0.1,0.8,0.6,0.8,1.1c0,0.2-0.1,0.3-0.2,0.4"/>
					<line class="st1" x1="45.5" y1="41.2" x2="45.7" y2="24"/>
				</g>
				<g>
					<ellipse class="st1" cx="10.4" cy="48.3" rx="0.9" ry="0.9"/>
					<line class="st1" x1="1.5" y1="48.5" x2="9.5" y2="48.5"/>
					<path class="st1" d="M13,50.1v-3l-3.4-2.3c-0.3,0.5-0.8,1.2-1.4,1.8c-1,1-1.9,1.5-2.6,1.9c0.8,0.4,1.7,1,2.6,1.7
						c0.7,0.6,1.3,1.2,1.8,1.8C11.1,51.3,12,50.7,13,50.1z"/>
					<polygon class="st1" points="13.5,51.5 15.6,51.5 15.6,45.1 13.3,45.2 					"/>
					<path class="st1" d="M15.6,51.5c3,0.4,6.8,0.6,11.1,0.2c4.4-0.4,8.1-1.2,11-2.2c0-0.8,0-1.7,0-2.5c-2.7-0.8-5.9-1.5-9.6-1.9
						c-4.8-0.5-9.1-0.4-12.5-0.1"/>
					<path class="st1" d="M18.2,50.4c0.1,0,0.5,0,0.9-0.4c0.3-0.4,0.2-0.8,0.1-1.1c-0.3-0.6-1.3-0.8-1.9-0.4
						c-0.7,0.4-0.7,1.5-0.4,2.1c0.2,0.6,0.8,1,1.4,1.1c1.3,0.2,2.8-1.5,2.8-3.1c0-0.5-0.2-1-0.2-1.2c-0.1-0.3-0.4-1-1-1.5
						c-0.6-0.5-1.9-1.1-2.7-0.4c-0.5,0.5-0.8,1.5-0.4,2.1c0.5,0.8,1.9,0.7,2.2,0.1c0.2-0.3,0.1-0.6,0-0.9c-0.2-0.5-0.7-0.6-0.8-0.6"
						/>
					<path class="st1" d="M21.4,50.3c0,0.7,0.4,1.3,1,1.5c0.7,0.2,1.3-0.3,1.5-0.8c0.4-0.8,0-2-1-2.8"/>
					<path class="st1" d="M21.4,45.9c0-0.7,0.5-1.2,1-1.2c0.7,0,1.3,0.6,1.5,1c0.4,0.8,0,1.9-1.1,2.5"/>
					<path class="st1" d="M27.4,49.8c-0.5-0.4-0.6-0.9-0.5-1.2c0.2-0.4,1-0.3,1.4,0c0.7,0.5,0.7,2-0.3,2.7c-1,0.7-2.4,0.1-3-0.9
						c-0.4-0.8,0-1.7,0.1-1.8"/>
					<path class="st1" d="M27.3,46.9c-0.4,0.4-0.5,0.9-0.3,1.2c0.3,0.4,1,0.3,1.4,0c0.6-0.5,0.4-2.1-0.6-2.8c-1-0.7-2.4-0.2-2.8,0.9
						c-0.3,0.8,0.2,1.8,0.3,1.9"/>
					<path class="st1" d="M31.3,51.2c-0.1,0-0.4,0.1-0.7,0c-0.5-0.2-0.8-0.6-0.9-1.1c-0.1-0.8,0.7-0.9,0.7-1.8c0-0.9-0.9-1.3-0.7-2
						c0.1-0.4,0.6-0.8,1.1-0.8c0.2,0,0.3,0.1,0.4,0.2"/>
					<line class="st1" x1="37.7" y1="48.2" x2="20.9" y2="48.2"/>
				</g>
				<g>
					<ellipse class="st1" cx="80.9" cy="48.3" rx="0.9" ry="0.9"/>
					<line class="st1" x1="89.8" y1="48.5" x2="81.8" y2="48.5"/>
					<path class="st1" d="M78.3,50.1v-3l3.3-2.3c0.3,0.5,0.8,1.2,1.4,1.8c1,1,1.9,1.5,2.6,1.9c-0.8,0.4-1.7,1-2.6,1.7
						c-0.7,0.6-1.3,1.2-1.8,1.8C80.2,51.3,79.2,50.7,78.3,50.1z"/>
					<polygon class="st1" points="77.7,51.5 75.7,51.5 75.7,45.1 78,45.2 					"/>
					<path class="st1" d="M75.7,51.5c-3,0.4-6.8,0.6-11.1,0.2c-4.4-0.4-8.1-1.2-11-2.2c0-0.8,0-1.7,0-2.5c2.7-0.8,5.9-1.5,9.6-1.9
						c4.8-0.5,9.1-0.4,12.5-0.1"/>
					<path class="st1" d="M73.1,50.4c-0.1,0-0.6,0-0.8-0.4c-0.3-0.4-0.2-0.8-0.1-1.1c0.3-0.6,1.3-0.8,1.9-0.4
						c0.7,0.4,0.7,1.5,0.4,2.1c-0.2,0.6-0.8,1-1.4,1.1c-1.3,0.2-2.8-1.5-2.8-3.1c0-0.5,0.2-1,0.2-1.2c0.1-0.3,0.3-1,1-1.5
						c0.6-0.5,1.9-1.1,2.7-0.4c0.5,0.5,0.8,1.5,0.3,2.1c-0.6,0.8-1.9,0.7-2.2,0.1c-0.2-0.3-0.1-0.6,0-0.9c0.2-0.5,0.7-0.6,0.8-0.6"
						/>
					<path class="st1" d="M69.9,50.3c0,0.7-0.4,1.3-1,1.5c-0.7,0.2-1.3-0.3-1.5-0.8c-0.4-0.8,0-2,1-2.8"/>
					<path class="st1" d="M69.9,45.9c0-0.7-0.4-1.2-1-1.2c-0.7,0-1.3,0.6-1.5,1c-0.4,0.8,0,1.9,1.1,2.5"/>
					<path class="st1" d="M63.9,49.8c0.5-0.4,0.6-0.9,0.5-1.2c-0.2-0.4-1-0.3-1.4,0c-0.7,0.5-0.7,2,0.3,2.7c1,0.7,2.4,0.1,3-0.9
						c0.4-0.8,0-1.7-0.1-1.8"/>
					<path class="st1" d="M64,46.9c0.4,0.4,0.5,0.9,0.3,1.2c-0.3,0.4-1,0.3-1.4,0c-0.6-0.5-0.4-2.1,0.6-2.8c1-0.7,2.4-0.2,2.8,0.9
						c0.3,0.8-0.2,1.8-0.3,1.9"/>
					<path class="st1" d="M59.9,51.2c0.1,0,0.4,0.1,0.7,0c0.5-0.2,0.8-0.6,0.9-1.1c0.1-0.8-0.7-0.9-0.7-1.8c0-0.9,0.9-1.3,0.7-2
						c-0.1-0.4-0.6-0.8-1.1-0.8c-0.2,0-0.3,0.1-0.4,0.2"/>
					<line class="st1" x1="53.6" y1="48.2" x2="70.3" y2="48.2"/>
				</g>
			</g>
		</g>
		<g>
			<defs>
				<rect id="SVGID_3_" y="2.1" width="90.8" height="46.4"/>
			</defs>
			<clipPath id="SVGID_4_">
				<use xlink:href="#SVGID_3_"  style="overflow:visible;"/>
			</clipPath>
			<path class="st2" d="M45.7,3.6C21.3,3.6,1.5,22.4,1.5,45.7s19.8,42.1,44.2,42.1s44.2-18.8,44.2-42.1S70.1,3.6,45.7,3.6z
				 M45.7,57.2c-4.4,0-8-3.6-8-8s3.6-8,8-8s8,3.6,8,8S50.1,57.2,45.7,57.2z"/>
		</g>
	</g>
	<g>
		<g>
			<g>
				<path class="st3" d="M45.4,50.2c-6.5-3-11.8-3.5-15.6-3.4C23.5,47,18.9,49.2,7.1,50c-1.5,0.1-2.7,0.2-3.6,0.2v-3.3
					c0.8,0,2.1-0.1,3.6-0.2c11.8-0.8,16.3-3,22.7-3.2c3.7-0.1,9,0.4,15.6,3.4V50.2z"/>
				<path class="st4" d="M3.6,47.5c0.8,0,2.1-0.1,3.6-0.2c11.8-0.8,16.3-3,22.7-3.2c3.7-0.1,9,0.4,15.6,3.4"/>
				<path class="st4" d="M3.6,48c0.8,0,2.1-0.1,3.6-0.2c11.7-0.8,16.3-3,22.7-3.2c3.7-0.1,9,0.4,15.6,3.4"/>
				<path class="st4" d="M3.6,49.1c0.8,0,2.1-0.1,3.6-0.2c11.7-0.8,16.3-3,22.7-3.2c3.7-0.1,9,0.4,15.6,3.4"/>
				<path class="st4" d="M3.6,49.7c0.8,0,2.1-0.1,3.6-0.2c11.8-0.8,16.3-3,22.7-3.2c3.7-0.1,9,0.4,15.6,3.4"/>
				<path class="st4" d="M3.6,48.6c0.8,0,2.1-0.1,3.6-0.2c11.8-0.8,16.3-3,22.7-3.2c3.7-0.1,9,0.4,15.6,3.4"/>
			</g>
			<g>
				<path class="st3" d="M87.2,46.8c-0.8,0-2.1-0.1-3.6-0.2c-11.8-0.8-16.3-3-22.7-3.2c-3.7-0.1-9,0.4-15.6,3.4v3.3
					c6.5-3,11.9-3.5,15.6-3.4c6.3,0.2,10.9,2.4,22.7,3.2c1.5,0.1,2.7,0.2,3.6,0.2C87.2,50.2,87.2,46.8,87.2,46.8z"/>
				<path class="st4" d="M87.2,47.5c-0.8,0-2.1-0.1-3.6-0.2c-11.8-0.8-16.3-3-22.7-3.2c-3.7-0.1-9,0.4-15.6,3.4"/>
				<path class="st4" d="M87.2,48c-0.8,0-2.1-0.1-3.6-0.2c-11.8-0.8-16.3-3-22.7-3.2c-3.7-0.1-9,0.4-15.6,3.4"/>
				<path class="st4" d="M87.2,49.1c-0.8,0-2.1-0.1-3.6-0.2c-11.8-0.8-16.3-3-22.7-3.2c-3.7-0.1-9,0.4-15.6,3.4"/>
				<path class="st4" d="M87.2,49.7c-0.8,0-2.1-0.1-3.6-0.2c-11.8-0.8-16.3-3-22.7-3.2c-3.7-0.1-9,0.4-15.6,3.4"/>
				<path class="st4" d="M87.2,48.6c-0.8,0-2.1-0.1-3.6-0.2c-11.8-0.8-16.3-3-22.7-3.2c-3.7-0.1-9,0.4-15.6,3.4"/>
			</g>
		</g>
		<path class="st5" d="M2.7,50.4c-1.1,0-2-0.6-1.9-1.2c0.1-0.5,0.9-1,1.9-1c29.3-2.5,39.6-2.1,40.7-0.6c0.1,0.2,1,0.8,2.1,0.9
			c1.1,0.1,2-0.5,2.1-0.6c1.3-1.4,11.8-1.7,40.3,0.3c1.1,0.3,2.3,0.7,2.3,1.1c0,0.5-1,1.2-2.3,1C59.4,50.4,31,50.4,2.7,50.4z"/>
		
			<linearGradient id="SVGID_5_" gradientUnits="userSpaceOnUse" x1="44.28" y1="28.9852" x2="46.5402" y2="28.9852" gradientTransform="matrix(1 0 0 -1 0 80)">
			<stop  offset="0.3586" style="stop-color:#C53C2E"/>
			<stop  offset="0.9247" style="stop-color:#ED754D"/>
		</linearGradient>
		<path class="st6" d="M44.3,48.5V54l1-0.5c0.1-0.1,0.2-0.1,0.3,0l1,0.6l0-5.4c0-0.1-0.2-0.5-0.7-0.7C45.3,47.8,44.7,48,44.3,48.5z"
			/>
	</g>
	<g>
		<path class="st5" d="M107.4,40.6h-12v-32h12.7c10.6,0,17,4.6,17,15.6C125.2,35.7,117.8,40.6,107.4,40.6z M107.5,16.1h-2V33h2.1
			c4.9,0,7.3-3.3,7.3-8.3C114.9,19.7,113.1,16.1,107.5,16.1z"/>
		<path class="st5" d="M143.8,41.4c-10.4,0-16.3-3.9-16.3-16.8c0-10.6,5.9-16.8,16.6-16.8c10.1,0,16.3,4.3,16.3,16.5
			C160.4,35.4,154.8,41.4,143.8,41.4z M143.9,15.8c-4.9,0-5.9,3.9-5.9,8.4c0,6.3,1.4,9.2,6,9.2c4.7,0,5.9-3.7,5.9-8.7
			C149.9,18.9,148.6,15.8,143.9,15.8z"/>
		<path class="st5" d="M164,40.6v-32h21v7.5h-11v4.4h9.3v7.4H174V33h11.1v7.5H164z"/>
		<path class="st5" d="M220.3,40.6c0-7.4-0.1-16-0.5-22.2h0l-6.1,22.2h-9.4l-5.8-22.2h0c-0.3,6.3-0.6,14.8-0.6,22.2h-8.9
			c0-9.7,0.6-21.8,1.5-32H205l4.6,17.7l4.8-17.7H229c0.8,10.2,1.4,22.3,1.4,32H220.3z"/>
		<path class="st5" d="M254.5,40.6c-0.4-1.6-0.8-3.7-1.3-5.5h-9.7c-0.5,2-1,3.9-1.4,5.5h-9.7c2.9-10.3,6.1-20.3,10.3-32h12.7
			c3.9,10.8,7.6,21.8,10.4,32H254.5z M248.5,17.8L248.5,17.8c-1.1,3.4-2.1,6.6-3,9.8h5.8C250.4,24.1,249.6,21.2,248.5,17.8z"/>
	</g>
	<g>
		<path class="st5" d="M95.5,45.2h2.3l0,0c0.4,0,0.7,0.1,1.1,0.2c0.3,0.1,0.6,0.3,0.9,0.6c0.2,0.2,0.4,0.5,0.6,0.8
			c0.1,0.3,0.2,0.7,0.2,1.1c0,0.4-0.1,0.8-0.2,1.1c-0.1,0.3-0.3,0.6-0.6,0.8c-0.3,0.2-0.5,0.4-0.9,0.5c-0.3,0.1-0.7,0.2-1.1,0.2
			h-2.3V45.2z M96.7,49.4h1.1v0c0.2,0,0.4,0,0.6-0.1c0.2-0.1,0.3-0.2,0.5-0.3c0.1-0.1,0.2-0.3,0.3-0.5c0.1-0.2,0.1-0.4,0.1-0.6
			c0-0.2,0-0.4-0.1-0.6c-0.1-0.2-0.2-0.3-0.3-0.5c-0.1-0.1-0.3-0.2-0.5-0.3c-0.2-0.1-0.4-0.1-0.6-0.1h-1.1V49.4z"/>
		<path class="st5" d="M102.7,50.6h-1.3v-5.4h1.3V50.6z"/>
		<path class="st5" d="M107.4,50.6l-0.3-0.8H105l-0.3,0.8h-1.4l2.1-5.3h1.2l2.1,5.3H107.4z M107.4,44.2l-1.9,0.8l-0.4-0.7l1.8-1
			L107.4,44.2z M105.4,48.6h1.3l-0.4-1c0-0.1-0.1-0.2-0.1-0.3c0,0,0-0.1-0.1-0.3c0,0,0-0.1,0-0.1c0,0,0-0.1,0-0.1l0-0.1h0l0,0.1
			c0,0,0,0.1,0,0.1c0,0,0,0.1,0,0.1c0,0.2-0.1,0.2-0.1,0.3c0,0.1-0.1,0.2-0.1,0.3L105.4,48.6z"/>
		<path class="st5" d="M113.8,50.6h-1.4l-1-1.7h-0.7v1.7h-1.3v-5.3h2c0.3,0,0.6,0,0.9,0.1c0.3,0.1,0.5,0.2,0.7,0.4
			c0.2,0.2,0.3,0.4,0.4,0.6c0.1,0.2,0.2,0.5,0.2,0.7c0,0.4-0.1,0.7-0.3,0.9c-0.2,0.3-0.4,0.5-0.7,0.6L113.8,50.6z M110.7,46.4v1.3
			l0.9,0c0.1,0,0.2,0,0.3-0.1c0.1,0,0.2-0.1,0.2-0.2c0.1-0.1,0.1-0.1,0.1-0.2c0-0.1,0-0.2,0-0.2c0-0.1,0-0.2,0-0.2
			c0-0.1-0.1-0.1-0.1-0.2c-0.1-0.1-0.1-0.1-0.2-0.2c-0.1,0-0.2-0.1-0.3-0.1H110.7z"/>
		<path class="st5" d="M115.9,50.6h-1.3v-5.4h1.3V50.6z"/>
		<path class="st5" d="M116.7,47.9L116.7,47.9c0-0.4,0.1-0.8,0.2-1.1c0.1-0.3,0.3-0.6,0.6-0.9c0.2-0.2,0.5-0.4,0.9-0.6
			c0.3-0.1,0.7-0.2,1.1-0.2s0.7,0.1,1.1,0.2c0.3,0.1,0.6,0.3,0.9,0.6c0.3,0.2,0.5,0.5,0.6,0.9c0.1,0.4,0.2,0.7,0.2,1.1
			c0,0.4-0.1,0.8-0.2,1.1c-0.1,0.3-0.3,0.6-0.6,0.9c-0.2,0.2-0.5,0.4-0.9,0.6c-0.3,0.1-0.7,0.2-1.1,0.2c-0.4,0-0.7-0.1-1.1-0.2
			c-0.3-0.1-0.6-0.3-0.9-0.6c-0.2-0.2-0.4-0.5-0.6-0.9C116.8,48.7,116.7,48.3,116.7,47.9z M118.1,47.9L118.1,47.9
			c0,0.2,0,0.4,0.1,0.6c0.1,0.2,0.2,0.3,0.3,0.5c0.1,0.1,0.3,0.2,0.5,0.3c0.2,0.1,0.4,0.1,0.6,0.1c0.2,0,0.4,0,0.6-0.1
			c0.2-0.1,0.3-0.2,0.5-0.3c0.1-0.1,0.2-0.3,0.3-0.5c0.1-0.2,0.1-0.4,0.1-0.6c0-0.2,0-0.4-0.1-0.6c-0.1-0.2-0.2-0.3-0.3-0.5
			c-0.1-0.1-0.3-0.2-0.5-0.3c-0.2-0.1-0.4-0.1-0.6-0.1s-0.4,0-0.6,0.1c-0.2,0.1-0.3,0.2-0.5,0.3c-0.1,0.1-0.2,0.3-0.3,0.5
			C118.1,47.5,118.1,47.7,118.1,47.9z"/>
		<path class="st5" d="M124.8,47.9L124.8,47.9c0-0.4,0.1-0.8,0.2-1.1c0.1-0.3,0.3-0.6,0.6-0.9c0.2-0.2,0.5-0.4,0.9-0.6
			c0.3-0.1,0.7-0.2,1.1-0.2s0.7,0.1,1.1,0.2c0.3,0.1,0.6,0.3,0.9,0.6c0.3,0.2,0.5,0.5,0.6,0.9c0.1,0.4,0.2,0.7,0.2,1.1
			c0,0.4-0.1,0.8-0.2,1.1c-0.1,0.3-0.3,0.6-0.6,0.9c-0.2,0.2-0.5,0.4-0.9,0.6c-0.3,0.1-0.7,0.2-1.1,0.2c-0.4,0-0.7-0.1-1.1-0.2
			c-0.3-0.1-0.6-0.3-0.9-0.6c-0.2-0.2-0.4-0.5-0.6-0.9C124.8,48.7,124.8,48.3,124.8,47.9z M126.1,47.9L126.1,47.9
			c0,0.2,0,0.4,0.1,0.6c0.1,0.2,0.2,0.3,0.3,0.5c0.1,0.1,0.3,0.2,0.5,0.3c0.2,0.1,0.4,0.1,0.6,0.1c0.2,0,0.4,0,0.6-0.1
			c0.2-0.1,0.3-0.2,0.5-0.3c0.1-0.1,0.2-0.3,0.3-0.5c0.1-0.2,0.1-0.4,0.1-0.6c0-0.2,0-0.4-0.1-0.6c-0.1-0.2-0.2-0.3-0.3-0.5
			c-0.1-0.1-0.3-0.2-0.5-0.3c-0.2-0.1-0.4-0.1-0.6-0.1s-0.4,0-0.6,0.1c-0.2,0.1-0.3,0.2-0.5,0.3c-0.1,0.1-0.2,0.3-0.3,0.5
			C126.1,47.5,126.1,47.7,126.1,47.9z"/>
		<path class="st5" d="M135,46.4h-2.5v1h2v1.2h-2v2h-1.3v-5.4h3.8V46.4z"/>
		<path class="st5" d="M137.2,50.6h-1.3v-5.4h1.3V50.6z"/>
		<path class="st5" d="M143.2,46.5l-1.3,0.3l0,0.1c-0.1-0.2-0.3-0.3-0.5-0.4c-0.2-0.1-0.4-0.1-0.6-0.1c-0.2,0-0.4,0-0.6,0.1
			c-0.2,0.1-0.3,0.2-0.5,0.3c-0.1,0.1-0.2,0.3-0.3,0.5c-0.1,0.2-0.1,0.4-0.1,0.6s0,0.4,0.1,0.6c0.1,0.2,0.2,0.3,0.3,0.5
			c0.1,0.1,0.3,0.2,0.5,0.3c0.2,0.1,0.4,0.1,0.6,0.1c0.3,0,0.5-0.1,0.7-0.2c0.2-0.1,0.4-0.3,0.5-0.5l1.3,0.3
			c-0.1,0.2-0.3,0.5-0.4,0.6c-0.2,0.2-0.4,0.4-0.6,0.5c-0.2,0.1-0.5,0.2-0.7,0.3c-0.3,0.1-0.5,0.1-0.8,0.1c-0.4,0-0.7-0.1-1.1-0.2
			c-0.3-0.1-0.6-0.3-0.9-0.6c-0.2-0.2-0.4-0.5-0.6-0.9c-0.1-0.3-0.2-0.7-0.2-1.1c0-0.4,0.1-0.8,0.2-1.1c0.1-0.3,0.3-0.6,0.6-0.9
			c0.2-0.2,0.5-0.4,0.9-0.6c0.3-0.1,0.7-0.2,1.1-0.2c0.3,0,0.5,0,0.8,0.1c0.2,0.1,0.5,0.2,0.7,0.3c0.2,0.1,0.4,0.3,0.6,0.4
			C143,46.1,143.1,46.3,143.2,46.5z"/>
		<path class="st5" d="M145.4,50.6h-1.3v-5.4h1.3V50.6z"/>
		<path class="st5" d="M150.1,50.6l-0.3-0.8h-2.1l-0.3,0.8H146l2.1-5.3h1.2l2.1,5.3H150.1z M148.1,48.6h1.3l-0.4-1
			c0-0.1-0.1-0.2-0.1-0.3c0,0,0-0.1-0.1-0.3c0,0,0-0.1,0-0.1c0,0,0-0.1,0-0.1l0-0.1h0l0,0.1c0,0,0,0.1,0,0.1c0,0,0,0.1,0,0.1
			c0,0.2-0.1,0.2-0.1,0.3c0,0.1-0.1,0.2-0.1,0.3L148.1,48.6z"/>
		<path class="st5" d="M153.4,49.4h2.5v1.2h-3.8v-5.4h1.3V49.4z"/>
		<path class="st5" d="M158.6,45.2h2.3l0,0c0.4,0,0.7,0.1,1.1,0.2c0.3,0.1,0.6,0.3,0.9,0.6c0.2,0.2,0.4,0.5,0.6,0.8
			c0.1,0.3,0.2,0.7,0.2,1.1c0,0.4-0.1,0.8-0.2,1.1c-0.1,0.3-0.3,0.6-0.6,0.8c-0.3,0.2-0.5,0.4-0.9,0.5c-0.3,0.1-0.7,0.2-1.1,0.2
			h-2.3V45.2z M159.9,49.4h1.1v0c0.2,0,0.4,0,0.6-0.1c0.2-0.1,0.3-0.2,0.5-0.3c0.1-0.1,0.2-0.3,0.3-0.5c0.1-0.2,0.1-0.4,0.1-0.6
			c0-0.2,0-0.4-0.1-0.6c-0.1-0.2-0.2-0.3-0.3-0.5c-0.1-0.1-0.3-0.2-0.5-0.3c-0.2-0.1-0.4-0.1-0.6-0.1h-1.1V49.4z"/>
		<path class="st5" d="M164.2,47.9L164.2,47.9c0-0.4,0.1-0.8,0.2-1.1c0.1-0.3,0.3-0.6,0.6-0.9c0.2-0.2,0.5-0.4,0.9-0.6
			c0.3-0.1,0.7-0.2,1.1-0.2c0.4,0,0.7,0.1,1.1,0.2c0.3,0.1,0.6,0.3,0.9,0.6c0.3,0.2,0.5,0.5,0.6,0.9c0.1,0.4,0.2,0.7,0.2,1.1
			c0,0.4-0.1,0.8-0.2,1.1c-0.1,0.3-0.3,0.6-0.6,0.9c-0.2,0.2-0.5,0.4-0.9,0.6c-0.3,0.1-0.7,0.2-1.1,0.2c-0.4,0-0.7-0.1-1.1-0.2
			c-0.3-0.1-0.6-0.3-0.9-0.6c-0.2-0.2-0.4-0.5-0.6-0.9C164.3,48.7,164.2,48.3,164.2,47.9z M165.6,47.9L165.6,47.9
			c0,0.2,0,0.4,0.1,0.6c0.1,0.2,0.2,0.3,0.3,0.5c0.1,0.1,0.3,0.2,0.5,0.3c0.2,0.1,0.4,0.1,0.6,0.1c0.2,0,0.4,0,0.6-0.1
			c0.2-0.1,0.3-0.2,0.5-0.3c0.1-0.1,0.2-0.3,0.3-0.5c0.1-0.2,0.1-0.4,0.1-0.6c0-0.2,0-0.4-0.1-0.6c-0.1-0.2-0.2-0.3-0.3-0.5
			c-0.1-0.1-0.3-0.2-0.5-0.3c-0.2-0.1-0.4-0.1-0.6-0.1s-0.4,0-0.6,0.1c-0.2,0.1-0.3,0.2-0.5,0.3c-0.1,0.1-0.2,0.3-0.3,0.5
			C165.6,47.5,165.6,47.7,165.6,47.9z"/>
		<path class="st5" d="M173.9,49.4h2.7v1.2h-3.9v-5.4h3.9v1.2h-2.6v0.9h2v1.1h-2V49.4z"/>
		<path class="st5" d="M181.5,46.6l-1.2,0.3h0c-0.1-0.2-0.2-0.4-0.4-0.5c-0.2-0.1-0.4-0.2-0.6-0.2c-0.2,0-0.3,0-0.4,0.1
			c-0.1,0.1-0.2,0.2-0.2,0.3c0,0.1,0,0.2,0.1,0.2c0.1,0.1,0.1,0.1,0.3,0.2c0.1,0.1,0.3,0.1,0.4,0.2c0.1,0,0.3,0.1,0.5,0.2
			c0.2,0.1,0.4,0.2,0.6,0.3c0.2,0.1,0.4,0.2,0.5,0.3c0.2,0.1,0.3,0.3,0.4,0.5s0.1,0.4,0.1,0.6c0,0.2,0,0.5-0.1,0.7
			c-0.1,0.2-0.2,0.4-0.4,0.5c-0.2,0.1-0.4,0.3-0.7,0.4c-0.3,0.1-0.5,0.1-0.9,0.1c-0.6,0-1-0.1-1.4-0.4c-0.4-0.3-0.7-0.7-0.8-1.2
			l1.2-0.3c0,0.1,0.1,0.2,0.2,0.3c0.1,0.1,0.1,0.2,0.2,0.3c0.1,0.1,0.2,0.1,0.3,0.2c0.1,0,0.2,0.1,0.4,0.1c0.2,0,0.4,0,0.5-0.1
			c0.1-0.1,0.2-0.2,0.2-0.3c0-0.1,0-0.2-0.1-0.3c-0.1-0.1-0.2-0.1-0.3-0.2c-0.1-0.1-0.3-0.1-0.4-0.2c-0.1,0-0.3-0.1-0.5-0.2
			c-0.2-0.1-0.3-0.1-0.5-0.2c-0.2-0.1-0.3-0.2-0.4-0.3c-0.1-0.1-0.2-0.3-0.3-0.4c-0.1-0.2-0.1-0.4-0.1-0.6c0-0.2,0.1-0.4,0.2-0.6
			c0.1-0.2,0.2-0.4,0.4-0.5c0.2-0.1,0.4-0.3,0.6-0.3c0.2-0.1,0.5-0.1,0.8-0.1c0.3,0,0.5,0,0.7,0.1c0.2,0.1,0.4,0.2,0.6,0.3
			c0.2,0.1,0.3,0.3,0.5,0.5C181.4,46.2,181.5,46.4,181.5,46.6z"/>
		<path class="st5" d="M181.8,45.2h4.5v1.2h-1.6v4.2h-1.3v-4.2h-1.6V45.2z"/>
		<path class="st5" d="M190.5,50.6l-0.3-0.8h-2.1l-0.3,0.8h-1.4l2.1-5.3h1.2l2.1,5.3H190.5z M188.5,48.6h1.3l-0.4-1
			c0-0.1-0.1-0.2-0.1-0.3c0,0,0-0.1-0.1-0.3c0,0,0-0.1,0-0.1c0,0,0-0.1,0-0.1l0-0.1h0l0,0.1c0,0,0,0.1,0,0.1c0,0,0,0.1,0,0.1
			c0,0.2-0.1,0.2-0.1,0.3c0,0.1-0.1,0.2-0.1,0.3L188.5,48.6z"/>
		<path class="st5" d="M192.5,45.2h2.3l0,0c0.4,0,0.7,0.1,1.1,0.2c0.3,0.1,0.6,0.3,0.9,0.6c0.2,0.2,0.4,0.5,0.6,0.8
			c0.1,0.3,0.2,0.7,0.2,1.1c0,0.4-0.1,0.8-0.2,1.1c-0.1,0.3-0.3,0.6-0.6,0.8c-0.3,0.2-0.5,0.4-0.9,0.5c-0.3,0.1-0.7,0.2-1.1,0.2
			h-2.3V45.2z M193.8,49.4h1.1v0c0.2,0,0.4,0,0.6-0.1c0.2-0.1,0.3-0.2,0.5-0.3c0.1-0.1,0.2-0.3,0.3-0.5c0.1-0.2,0.1-0.4,0.1-0.6
			c0-0.2,0-0.4-0.1-0.6c-0.1-0.2-0.2-0.3-0.3-0.5c-0.1-0.1-0.3-0.2-0.5-0.3c-0.2-0.1-0.4-0.1-0.6-0.1h-1.1V49.4z"/>
		<path class="st5" d="M198.2,47.9L198.2,47.9c0-0.4,0.1-0.8,0.2-1.1c0.1-0.3,0.3-0.6,0.6-0.9c0.2-0.2,0.5-0.4,0.9-0.6
			c0.3-0.1,0.7-0.2,1.1-0.2c0.4,0,0.7,0.1,1.1,0.2c0.3,0.1,0.6,0.3,0.9,0.6c0.3,0.2,0.5,0.5,0.6,0.9c0.1,0.4,0.2,0.7,0.2,1.1
			c0,0.4-0.1,0.8-0.2,1.1c-0.1,0.3-0.3,0.6-0.6,0.9c-0.2,0.2-0.5,0.4-0.9,0.6c-0.3,0.1-0.7,0.2-1.1,0.2c-0.4,0-0.7-0.1-1.1-0.2
			c-0.3-0.1-0.6-0.3-0.9-0.6c-0.2-0.2-0.4-0.5-0.6-0.9C198.2,48.7,198.2,48.3,198.2,47.9z M199.5,47.9L199.5,47.9
			c0,0.2,0,0.4,0.1,0.6c0.1,0.2,0.2,0.3,0.3,0.5c0.1,0.1,0.3,0.2,0.5,0.3c0.2,0.1,0.4,0.1,0.6,0.1c0.2,0,0.4,0,0.6-0.1
			c0.2-0.1,0.3-0.2,0.5-0.3c0.1-0.1,0.2-0.3,0.3-0.5c0.1-0.2,0.1-0.4,0.1-0.6c0-0.2,0-0.4-0.1-0.6c-0.1-0.2-0.2-0.3-0.3-0.5
			c-0.1-0.1-0.3-0.2-0.5-0.3c-0.2-0.1-0.4-0.1-0.6-0.1s-0.4,0-0.6,0.1c-0.2,0.1-0.3,0.2-0.5,0.3c-0.1,0.1-0.2,0.3-0.3,0.5
			C199.6,47.5,199.5,47.7,199.5,47.9z"/>
		<path class="st5" d="M206.5,45.2h2.3l0,0c0.4,0,0.7,0.1,1.1,0.2c0.3,0.1,0.6,0.3,0.9,0.6c0.2,0.2,0.4,0.5,0.6,0.8
			c0.1,0.3,0.2,0.7,0.2,1.1c0,0.4-0.1,0.8-0.2,1.1c-0.1,0.3-0.3,0.6-0.6,0.8c-0.3,0.2-0.5,0.4-0.9,0.5c-0.3,0.1-0.7,0.2-1.1,0.2
			h-2.3V45.2z M207.8,49.4h1.1v0c0.2,0,0.4,0,0.6-0.1c0.2-0.1,0.3-0.2,0.5-0.3c0.1-0.1,0.2-0.3,0.3-0.5c0.1-0.2,0.1-0.4,0.1-0.6
			c0-0.2,0-0.4-0.1-0.6c-0.1-0.2-0.2-0.3-0.3-0.5c-0.1-0.1-0.3-0.2-0.5-0.3c-0.2-0.1-0.4-0.1-0.6-0.1h-1.1V49.4z"/>
		<path class="st5" d="M212.2,47.9L212.2,47.9c0-0.4,0.1-0.8,0.2-1.1c0.1-0.3,0.3-0.6,0.6-0.9c0.2-0.2,0.5-0.4,0.9-0.6
			c0.3-0.1,0.7-0.2,1.1-0.2c0.4,0,0.7,0.1,1.1,0.2c0.3,0.1,0.6,0.3,0.9,0.6c0.3,0.2,0.5,0.5,0.6,0.9c0.1,0.4,0.2,0.7,0.2,1.1
			c0,0.4-0.1,0.8-0.2,1.1c-0.1,0.3-0.3,0.6-0.6,0.9c-0.2,0.2-0.5,0.4-0.9,0.6c-0.3,0.1-0.7,0.2-1.1,0.2c-0.4,0-0.7-0.1-1.1-0.2
			c-0.3-0.1-0.6-0.3-0.9-0.6c-0.2-0.2-0.4-0.5-0.6-0.9C212.2,48.7,212.2,48.3,212.2,47.9z M213.5,47.9L213.5,47.9
			c0,0.2,0,0.4,0.1,0.6c0.1,0.2,0.2,0.3,0.3,0.5c0.1,0.1,0.3,0.2,0.5,0.3c0.2,0.1,0.4,0.1,0.6,0.1c0.2,0,0.4,0,0.6-0.1
			c0.2-0.1,0.3-0.2,0.5-0.3c0.1-0.1,0.2-0.3,0.3-0.5c0.1-0.2,0.1-0.4,0.1-0.6c0-0.2,0-0.4-0.1-0.6c-0.1-0.2-0.2-0.3-0.3-0.5
			c-0.1-0.1-0.3-0.2-0.5-0.3c-0.2-0.1-0.4-0.1-0.6-0.1s-0.4,0-0.6,0.1c-0.2,0.1-0.3,0.2-0.5,0.3c-0.1,0.1-0.2,0.3-0.3,0.5
			C213.5,47.5,213.5,47.7,213.5,47.9z"/>
		<path class="st5" d="M224.7,45.2h1.2v5.4h-1.3v-1.3c0-0.6,0-1.1,0-1.4c0-0.2,0-0.3,0-0.4c0-0.1,0-0.1,0-0.1h0l-0.1,0.1
			c0,0,0,0.1-0.1,0.1c0,0.1-0.1,0.1-0.1,0.1c0,0,0,0.1-0.1,0.1c0,0.1-0.1,0.1-0.1,0.1c-0.1,0.1-0.1,0.1-0.1,0.2l-0.6,1.1h-0.7
			l-0.6-1.1c0,0,0-0.1-0.1-0.2c0,0-0.1-0.1-0.1-0.1s-0.1-0.1-0.1-0.1c0,0,0-0.1-0.1-0.1c0-0.1-0.1-0.1-0.1-0.1l-0.1-0.1h0
			c0,0,0,0.1,0,0.1c0,0,0,0.2,0,0.3c0,0.3,0,0.8,0,1.4v1.3h-1.3v-5.4h1.2l1,1.6c0,0.1,0.1,0.1,0.1,0.2s0.1,0.1,0.1,0.2
			c0.1,0.1,0.1,0.2,0.1,0.2c0,0.1,0,0.1,0.1,0.1l0,0h0l0,0c0,0,0-0.1,0.1-0.1c0,0,0.1-0.1,0.1-0.2c0,0,0.1-0.1,0.1-0.2
			c0.1-0.1,0.1-0.2,0.1-0.2L224.7,45.2z"/>
		<path class="st5" d="M230.6,50.6l-0.3-0.8h-2.1l-0.3,0.8h-1.4l2.1-5.3h1.2l2.1,5.3H230.6z M228.6,48.6h1.3l-0.4-1
			c0-0.1-0.1-0.2-0.1-0.3c0,0,0-0.1-0.1-0.3c0,0,0-0.1,0-0.1c0,0,0-0.1,0-0.1l0-0.1h0l0,0.1c0,0,0,0.1,0,0.1c0,0,0,0.1,0,0.1
			c0,0.2-0.1,0.2-0.1,0.3c0,0.1-0.1,0.2-0.1,0.3L228.6,48.6z"/>
		<path class="st5" d="M236.9,50.6h-1.4l-1-1.7h-0.7v1.7h-1.3v-5.3h2c0.3,0,0.6,0,0.9,0.1c0.3,0.1,0.5,0.2,0.7,0.4
			c0.2,0.2,0.3,0.4,0.4,0.6c0.1,0.2,0.2,0.5,0.2,0.7c0,0.4-0.1,0.7-0.3,0.9c-0.2,0.3-0.4,0.5-0.7,0.6L236.9,50.6z M233.8,46.4v1.3
			l0.9,0c0.1,0,0.2,0,0.3-0.1c0.1,0,0.2-0.1,0.2-0.2c0.1-0.1,0.1-0.1,0.1-0.2c0-0.1,0-0.2,0-0.2c0-0.1,0-0.2,0-0.2
			c0-0.1-0.1-0.1-0.1-0.2c-0.1-0.1-0.1-0.1-0.2-0.2c-0.1,0-0.2-0.1-0.3-0.1H233.8z"/>
		<path class="st5" d="M241.3,50.6l-0.3-0.8h-2.1l-0.3,0.8h-1.4l2.1-5.3h1.2l2.1,5.3H241.3z M239.3,48.6h1.3l-0.4-1
			c0-0.1-0.1-0.2-0.1-0.3c0,0,0-0.1-0.1-0.3c0,0,0-0.1,0-0.1c0,0,0-0.1,0-0.1l0-0.1h0l0,0.1c0,0,0,0.1,0,0.1c0,0,0,0.1,0,0.1
			c0,0.2-0.1,0.2-0.1,0.3c0,0.1-0.1,0.2-0.1,0.3L239.3,48.6z"/>
		<path class="st5" d="M246.8,45.2h1.3v5.4h-1.2l-1.1-1.5c-0.1-0.2-0.3-0.4-0.4-0.6c-0.1-0.2-0.3-0.4-0.4-0.6c0-0.1-0.1-0.1-0.2-0.2
			c-0.1-0.1-0.1-0.2-0.1-0.2l-0.1-0.2h0v0.1V48v0.6v0.8v1.2h-1.3v-5.3h1.2l1.1,1.5c0.1,0.2,0.2,0.3,0.3,0.4c0,0,0.1,0.1,0.2,0.3
			c0.1,0.1,0.2,0.2,0.2,0.3c0.1,0.1,0.2,0.3,0.3,0.4l0.1,0.2h0v-0.2v-0.4v-0.6v-0.7V45.2z"/>
		<path class="st5" d="M252.6,45.2h1.3v5.4h-1.3v-2.1h-2v2.1h-1.3v-5.4h1.3v2.1h2V45.2z"/>
		<path class="st5" d="M258.5,50.6l-0.3-0.8h-2.1l-0.3,0.8h-1.4l2.1-5.3h1.2l2.1,5.3H258.5z M258.1,43.7h1l0,0c0,0.2,0,0.3-0.1,0.5
			c-0.1,0.1-0.1,0.3-0.3,0.4c-0.1,0.1-0.2,0.2-0.4,0.3c-0.1,0.1-0.3,0.1-0.5,0.1c-0.1,0-0.3,0-0.4-0.1c-0.1,0-0.2-0.1-0.3-0.2
			c-0.1-0.1-0.2-0.1-0.3-0.2c-0.1,0-0.2-0.1-0.3-0.1c-0.1,0-0.2,0-0.2,0.1c-0.1,0.1-0.1,0.1-0.1,0.2h-1c0-0.2,0-0.3,0.1-0.5
			c0.1-0.1,0.1-0.3,0.3-0.4c0.1-0.1,0.2-0.2,0.4-0.3c0.1-0.1,0.3-0.1,0.5-0.1c0.1,0,0.3,0,0.4,0.1c0.1,0,0.2,0.1,0.3,0.2
			s0.2,0.1,0.3,0.2c0.1,0,0.2,0.1,0.2,0.1c0.1,0,0.2,0,0.2-0.1S258.1,43.8,258.1,43.7z M256.5,48.6h1.3l-0.4-1
			c0-0.1-0.1-0.2-0.1-0.3c0,0,0-0.1-0.1-0.3c0,0,0-0.1,0-0.1c0,0,0-0.1,0-0.1l0-0.1h0l0,0.1c0,0,0,0.1,0,0.1c0,0,0,0.1,0,0.1
			c0,0.2-0.1,0.2-0.1,0.3c0,0.1-0.1,0.2-0.1,0.3L256.5,48.6z"/>
		<path class="st5" d="M260.2,47.9L260.2,47.9c0-0.4,0.1-0.8,0.2-1.1c0.1-0.3,0.3-0.6,0.6-0.9c0.2-0.2,0.5-0.4,0.9-0.6
			c0.3-0.1,0.7-0.2,1.1-0.2c0.4,0,0.7,0.1,1.1,0.2c0.3,0.1,0.6,0.3,0.9,0.6c0.3,0.2,0.5,0.5,0.6,0.9c0.1,0.4,0.2,0.7,0.2,1.1
			c0,0.4-0.1,0.8-0.2,1.1c-0.1,0.3-0.3,0.6-0.6,0.9c-0.2,0.2-0.5,0.4-0.9,0.6c-0.3,0.1-0.7,0.2-1.1,0.2c-0.4,0-0.7-0.1-1.1-0.2
			c-0.3-0.1-0.6-0.3-0.9-0.6c-0.2-0.2-0.4-0.5-0.6-0.9C260.3,48.7,260.2,48.3,260.2,47.9z M261.6,47.9L261.6,47.9
			c0,0.2,0,0.4,0.1,0.6c0.1,0.2,0.2,0.3,0.3,0.5c0.1,0.1,0.3,0.2,0.5,0.3c0.2,0.1,0.4,0.1,0.6,0.1c0.2,0,0.4,0,0.6-0.1
			c0.2-0.1,0.3-0.2,0.5-0.3c0.1-0.1,0.2-0.3,0.3-0.5c0.1-0.2,0.1-0.4,0.1-0.6c0-0.2,0-0.4-0.1-0.6c-0.1-0.2-0.2-0.3-0.3-0.5
			c-0.1-0.1-0.3-0.2-0.5-0.3c-0.2-0.1-0.4-0.1-0.6-0.1c-0.2,0-0.4,0-0.6,0.1c-0.2,0.1-0.3,0.2-0.5,0.3c-0.1,0.1-0.2,0.3-0.3,0.5
			C261.6,47.5,261.6,47.7,261.6,47.9z"/>
	</g>
</g>
</svg>
