<svg class="img-fluid" id="outputsvg" xmlns="http://www.w3.org/2000/svg" style="transform: matrix(0.591716, 0, 0, 0.591716, 6.987, 9.19289); transform-origin: 50% 50%; cursor: move; max-height: none; transition: none 0s ease 0s;" width="512" height="512" viewBox="0 0 5120 5120"><g id="l727hAADMQY6whan0aWtPxd" fill="none" stroke="rgb(255,255,255)" stroke-width="44" style="transform: none;"><g><path id="pUciWBIYs" d="M4680 5099 c-32 -14 -114 -89 -290 -265 l-245 -245 -105 54 c-206 107 -402 147 -619 126 -192 -18 -345 -72 -506 -180 -297 -198 -472 -509 -492 -870 -17 -305 105 -607 334 -830 219 -213 469 -313 778 -312 404 1 768 223 960 586 181 341 165 771 -40 1098 l-23 36 245 244 c135 135 254 262 265 284 56 107 -6 253 -120 285 -54 15 -92 12 -142 -11z m-1022 -744 c46 -9 115 -34 172 -62 79 -39 109 -61 181 -132 68 -69 94 -103 127 -171 57 -115 73 -184 74 -310 1 -199 -60 -348 -202 -491 -72 -73 -101 -94 -180 -132 -122 -59 -232 -82 -351 -74 -352 25 -625 299 -646 648 -7 116 8 208 48 306 129 309 451 482 777 418z"></path><path id="pEyE5foOD" d="M325 4596 c-65 -30 -112 -77 -144 -146 l-26 -55 -3 -1537 -2 -1538 482 0 c511 0 534 -2 625 -49 89 -45 159 -128 194 -228 18 -53 19 -87 19 -550 l0 -493 1068 2 1067 3 45 23 c63 33 115 86 142 146 l23 51 3 1109 2 1109 -37 -7 c-253 -44 -479 -28 -693 49 -100 37 -170 73 -270 139 l-83 56 -866 0 c-820 0 -868 1 -900 18 -63 34 -87 110 -55 177 35 74 -17 69 815 75 l746 5 -48 84 c-63 109 -102 204 -135 327 -35 133 -45 372 -20 516 41 244 155 473 331 666 l67 72 -1149 0 -1148 0 -50 -24z m1792 -972 c60 -44 79 -123 43 -181 -43 -71 -18 -68 -585 -71 -280 -2 -529 0 -552 3 -86 12 -139 93 -114 175 13 42 59 85 101 93 14 3 262 4 552 3 516 -1 527 -1 555 -22z m1028 -1456 c62 -67 52 -155 -24 -205 l-34 -23 -1041 0 c-1021 0 -1042 0 -1074 20 -40 25 -72 75 -72 115 0 41 28 91 65 115 29 20 48 20 1088 18 l1059 -3 33 -37z"></path><path id="pHxE1dO37" d="M244 1150 c-67 -21 -103 -105 -71 -166 9 -16 229 -242 489 -502 l473 -472 45 0 c54 1 85 16 111 56 18 28 19 51 19 455 0 467 -1 480 -60 551 -17 20 -51 47 -77 60 -48 23 -49 23 -473 25 -235 1 -439 -2 -456 -7z"></path></g></g><g id="ltWaFCuBImaVZXtQAijrZf" fill="none" stroke="rgb(111,255,255)" stroke-width="10" style="transform: none;"><g><path id="plZuMVx31" d="M3408 4360 c-178 -30 -345 -136 -448 -281 -97 -139 -137 -280 -127 -448 21 -349 294 -623 646 -648 119 -8 229 15 351 74 79 38 108 59 180 132 142 143 203 292 202 491 -1 126 -17 195 -74 310 -33 68 -59 102 -127 171 -72 71 -102 93 -181 132 -140 69 -280 91 -422 67z"></path><path id="ps7uaht9L" d="M1010 3643 c-42 -8 -88 -51 -101 -93 -25 -82 28 -163 114 -175 23 -3 272 -5 552 -3 567 3 542 0 585 71 36 58 17 137 -43 181 -28 21 -39 21 -555 22 -290 1 -538 0 -552 -3z"></path><path id="pYJh4dtaC" d="M965 2190 c-37 -24 -65 -74 -65 -115 0 -40 32 -90 72 -115 32 -20 53 -20 1074 -20 l1041 0 34 23 c76 50 86 138 24 205 l-33 37 -1059 3 c-1040 2 -1059 2 -1088 -18z"></path></g></g></svg>